<svg xmlns="http://www.w3.org/2000/svg" viewBox="0 0 94 94"><defs><style>.cls-1{fill:#343d35;}.cls-2{isolation:isolate;}.cls-3{fill:#47f594;}</style></defs><title>Risorsa 1</title><g id="Livello_2" data-name="Livello 2"><g id="Livello_1-2" data-name="Livello 1"><rect class="cls-1" width="94" height="94" rx="15.97"/><g class="cls-2"><path class="cls-3" d="M30,74.55v-.84l1.51-.5a4,4,0,0,0,2.27-1.6,5.34,5.34,0,0,0,.59-2.69c0-3.36.08-6.74.08-10.16V35q0-5.09-.08-10.12a6.49,6.49,0,0,0-.47-2.69,3.39,3.39,0,0,0-2.05-1.6L30,20v-.84H70.6l.59,14h-.84l-4.79-8.82a8.15,8.15,0,0,0-1.93-2.52,4.51,4.51,0,0,0-3-.93H47.08Q47,26.76,47,33V45.32h8.74a4.13,4.13,0,0,0,2.85-.84A8.69,8.69,0,0,0,60.36,42l1.76-3.19H63v14.7h-.84l-1.85-3.19a11.9,11.9,0,0,0-1.72-2.44A3.77,3.77,0,0,0,55.74,47H47V58.21q0,5.34.08,10.46A4.15,4.15,0,0,0,50.28,73l2.52.75v.84Z"/></g></g></g></svg>