<?xml version="1.0" encoding="utf-8"?>
<!-- Generator: Adobe Illustrator 23.0.3, SVG Export Plug-In . SVG Version: 6.00 Build 0)  -->
<svg version="1.1" id="Livello_1" xmlns="http://www.w3.org/2000/svg" xmlns:xlink="http://www.w3.org/1999/xlink" x="0px" y="0px"
	 viewBox="0 0 493.5 92" style="enable-background:new 0 0 493.5 92;" xml:space="preserve">
<style type="text/css">
	.st0{fill:#FFFFFF;stroke:#FFFFFF;stroke-width:3;stroke-miterlimit:10;}
	.st1{fill:#FFFFFF;}
</style>
<title>Risorsa 2</title>
<path class="st0" d="M55.1,10.8l-29.8,4.8L3.1,37.1c-0.2,1.2,0.5,2.3,1.8,2.7H5l5.2-0.4v31.2l29.2,9.1l30.3-10.5V42.8l5.5-1.1
	L55.1,10.8z M54.8,11.6l19.1,29.6l-5.1,1v26.4L39.3,78.8l-28.5-8.9V38.4L5,38.8c-0.7-0.1-1.2-0.8-1.1-1.5l21.8-21.1L54.8,11.6z
	 M27.8,52.8v20.4l10.5,3.4l0.1-30.7l2.3,4.4l16.8-3.9l-0.7-2.4l-15.1,3.2L26,19.2L12.4,32.1L12,68.3l7.3,2.3l0.1-20.7L27.8,52.8z
	 M43,17.1L35.7,18v11.7l4.9,8.7V21.5l6.9-1.2L43,17.1z"/>
<g>
	<path class="st1" d="M97,72.5v-0.8l1.6-0.6c1.1-0.4,1.8-0.9,2.1-1.6c0.3-0.6,0.5-1.5,0.5-2.5V24.7c0-1.1-0.2-2-0.5-2.6
		c-0.3-0.6-1.1-1.2-2.1-1.6L97,20v-0.8h20.5V20l-1.4,0.5c-1,0.4-1.7,0.9-2.1,1.5s-0.5,1.5-0.5,2.6v19.7h19.3V24.5
		c0-1.1-0.2-2-0.5-2.6c-0.3-0.6-1.1-1.1-2.1-1.5l-1.5-0.5v-0.8h20.6v0.8l-1.6,0.6c-1,0.4-1.7,0.9-2.1,1.6c-0.4,0.6-0.5,1.5-0.5,2.6
		v42.3c0,1,0.2,1.9,0.5,2.5c0.4,0.6,1.1,1.2,2.1,1.6l1.6,0.6v0.8h-20.6v-0.8l1.5-0.5c1.1-0.5,1.8-0.9,2.1-1.6s0.5-1.5,0.5-2.6V45.8
		h-19.3v21.3c0,2,0.9,3.4,2.7,4.1l1.4,0.5v0.8H97z"/>
	<path class="st1" d="M171.1,73.7c-4.1,0-7.7-0.9-10.6-2.6c-3.1-1.7-5.3-4.1-7-7.2c-1.6-3.1-2.4-6.8-2.4-11c0-4.2,0.9-7.8,2.7-10.9
		c1.7-3.1,4.1-5.5,7.2-7.1c3.1-1.6,6.5-2.5,10.3-2.5c3.8,0,7.3,0.9,10.3,2.4c3.1,1.6,5.4,4,7.1,7c1.7,3.1,2.7,6.7,2.7,11
		s-0.9,7.9-2.4,11c-1.6,3.1-4,5.5-7,7.2C178.7,72.8,175.2,73.7,171.1,73.7z M171.1,72c1.9,0,3.4-0.5,4.5-1.6s2-3,2.4-5.7
		c0.5-2.7,0.8-6.7,0.8-11.7c0-5.1-0.2-9-0.8-11.7c-0.5-2.7-1.3-4.7-2.4-5.7c-1.1-1.1-2.7-1.6-4.5-1.6s-3.4,0.5-4.5,1.6
		c-1.2,1.1-2,3-2.5,5.7c-0.5,2.7-0.8,6.7-0.8,11.7c0,5,0.2,8.9,0.8,11.7c0.5,2.7,1.3,4.7,2.5,5.7C167.7,71.6,169.2,72,171.1,72z"/>
	<path class="st1" d="M194.7,72.5v-0.8l1.1-0.3c1-0.2,1.7-0.7,2.1-1.4c0.4-0.6,0.6-1.5,0.7-2.6V42c0-1.2-0.2-2-0.5-2.7
		c-0.4-0.5-1.1-0.9-2.2-1.2l-1.2-0.3v-0.8l13.9-4.7l0.8,0.8l0.6,5.5c1.8-1.8,3.8-3.3,6.1-4.5c2.3-1.3,4.7-1.9,7.1-1.9
		c2.6,0,4.7,0.5,6.2,1.6c1.6,1,2.7,2.7,3.5,4.9c2.1-2,4.4-3.6,6.8-4.7c2.4-1.2,4.9-1.7,7.1-1.7c3.8,0,6.7,0.9,8.5,2.7
		c1.8,1.8,2.7,4.7,2.7,8.6v23.7c0,2.1,0.9,3.4,2.9,4l0.9,0.2v0.8h-18.7v-0.8l0.8-0.2c1-0.3,1.7-0.8,2.1-1.5c0.4-0.6,0.6-1.5,0.6-2.6
		V42.7c0-2.3-0.4-3.8-1.2-4.6c-0.8-0.9-2.1-1.3-3.9-1.3c-1.4,0-2.7,0.3-4.1,0.9s-2.7,1.6-4.1,2.8c0.2,0.9,0.5,1.8,0.5,2.8
		c0.1,1,0.2,2.1,0.2,3.2v20.9c0.1,2.1,1,3.4,2.9,4l0.7,0.2v0.8h-18.8v-0.8l1.1-0.3c1-0.3,1.7-0.8,2.1-1.4s0.6-1.5,0.6-2.6V42.7
		c0-2.2-0.4-3.7-1.2-4.6s-2.1-1.4-4-1.4c-1.3,0-2.5,0.3-3.7,0.9c-1.3,0.6-2.5,1.5-3.9,2.7v27.1c0,2.1,0.9,3.4,2.8,4l0.7,0.2v0.8
		H194.7z"/>
	<path class="st1" d="M285.4,32.3c3.5,0,6.5,0.7,9,2.1s4.4,3.4,5.7,5.8c1.3,2.4,2,5.2,2,8.4c0,0.6,0,1.2-0.1,1.8s-0.2,1.2-0.3,1.6
		h-24.1c0.1,5.8,1.1,10,3.1,12.6c2,2.6,5,3.8,9,3.8c2.7,0,4.9-0.5,6.6-1.3c1.6-0.9,3.2-2.1,4.7-3.8l0.8,0.7c-1.6,3-3.9,5.2-6.7,7
		c-2.7,1.7-6.1,2.5-10,2.5c-3.8,0-7.2-0.9-10.2-2.5c-3-1.6-5.2-4-7-7c-1.6-3.1-2.5-6.7-2.5-11c0-4.4,0.9-8.1,2.9-11.3
		c2-3.1,4.5-5.5,7.5-7C278.9,33.2,282.1,32.3,285.4,32.3z M285.2,34c-1.6,0-2.9,0.5-4,1.4c-1.1,0.9-2,2.6-2.6,5
		c-0.6,2.4-0.9,5.8-1,10.2h13.9c0.5-5.9,0.3-10.1-0.6-12.7C289.8,35.3,287.9,34,285.2,34z"/>
	<path class="st1" d="M323.9,72.5v-0.8l1.6-0.5c1.1-0.3,1.8-0.8,2.1-1.5c0.3-0.6,0.5-1.5,0.5-2.6V24.7c0-1.1-0.2-2-0.5-2.6
		c-0.4-0.6-1.1-1.2-2.2-1.6l-1.6-0.6v-0.8h19.7c8.1,0,13.9,1.5,17.5,4.4c3.6,3,5.4,6.8,5.4,11.6c0,3.1-0.7,5.9-2.2,8.5
		s-3.9,4.6-7.3,6.1c-3.4,1.5-8,2.3-13.8,2.3h-2.7v14.9c0,2.1,1,3.4,3.1,4.1l2.4,0.7v0.8L323.9,72.5L323.9,72.5z M340.3,50.3h3.1
		c2.7,0,4.8-0.4,6.5-1.3c1.6-0.9,2.9-2.3,3.7-4.5s1.2-5.2,1.2-9c0-3.9-0.5-6.9-1.3-9.1s-2.2-3.7-3.9-4.5c-1.7-0.9-3.9-1.3-6.5-1.3
		h-2.7L340.3,50.3L340.3,50.3z"/>
	<path class="st1" d="M380.3,73.7c-3.1,0-5.7-0.9-7.9-2.7c-2.1-1.8-3.2-4.3-3.2-7.7c0-2.5,1.3-4.9,3.9-7c2.6-2.1,6.7-3.8,12.2-4.8
		c0.9-0.2,1.8-0.3,2.9-0.5c1.1-0.2,2.2-0.4,3.4-0.6V44c0-3.7-0.5-6.3-1.3-7.8s-2.3-2.2-4.1-2.2c-1.3,0-2.3,0.4-3.1,1.3
		c-0.8,0.9-1.3,2.3-1.5,4.3l-0.2,0.9c-0.1,2.3-0.7,4-1.7,5.1c-1,1.1-2.3,1.6-3.8,1.6c-1.4,0-2.6-0.5-3.4-1.3c-0.9-0.9-1.4-2-1.4-3.4
		c0-2.2,0.8-4.1,2.3-5.6c1.6-1.5,3.6-2.7,6.1-3.4c2.5-0.8,5.2-1.1,8.2-1.1c4.8,0,8.5,1.2,11.1,3.5c2.6,2.3,3.9,6.2,3.9,11.4v17.9
		c0,2.4,1.1,3.6,3.4,3.6h1.8l0.7,0.6c-1,1.3-2.1,2.3-3.4,3c-1.2,0.7-2.9,1-5.2,1c-2.3,0-4.2-0.5-5.6-1.6c-1.4-1.1-2.3-2.6-2.7-4.4
		c-1.6,1.7-3.3,3.2-5,4.4C385.2,73,383,73.7,380.3,73.7z M385.3,68.7c1.1,0,2.1-0.2,3.1-0.8c0.9-0.5,2-1.3,3.4-2.3V52
		c-0.5,0.1-1.1,0.2-1.6,0.3c-0.5,0.1-1.2,0.2-1.9,0.3c-2.5,0.6-4.5,1.7-6,3.3c-1.5,1.6-2.2,3.6-2.2,6.2c0,2.2,0.5,3.8,1.6,5
		C382.5,68.2,383.8,68.7,385.3,68.7z"/>
	<path class="st1" d="M427.5,58.5c-3.7,0-6.9-0.6-9.5-1.9v2.7c0,1.6,0.9,2.7,2.5,3l15.2,2.8c2.5,0.5,4.9,1.1,6.9,1.9
		c2,0.8,3.7,1.9,4.9,3.3c1.3,1.4,1.9,3.4,1.9,5.9c0,2.7-0.9,5.1-2.6,7.3c-1.7,2.3-4.3,4.1-7.7,5.4c-3.4,1.4-7.6,2-12.6,2
		c-4.3,0-7.8-0.5-10.3-1.3c-2.5-0.9-4.3-2-5.4-3.4c-1-1.4-1.6-2.9-1.6-4.5c0-2,0.6-3.9,2-5.9c1.3-2,3-3.5,4.9-4.7
		c-1.6-0.6-2.9-1.5-3.6-2.5c-0.8-1-1.1-2.1-1.1-3.3c0-1.1,0.3-2.1,0.9-3.1c0.5-0.9,1.3-1.9,2-2.9L417,56c-3.9-2.3-5.9-5.8-5.9-10.6
		c0-3.9,1.4-7,4.1-9.5c2.7-2.4,6.9-3.6,12.2-3.6c2.7,0,5.2,0.3,7.2,0.9c2,0.6,3.8,1.6,5.2,2.7c1.7-0.2,3.4-0.7,4.9-1.3
		c1.6-0.6,2.9-1.5,4.1-2.6l1.1,0.8V37h-9.2c2,2.2,2.9,4.9,2.9,8.3c0,3.8-1.4,6.9-4.1,9.3C436.9,57.2,432.9,58.5,427.5,58.5z
		 M415.3,79.2c0,3.2,1,5.6,3,7.2c2,1.6,5.1,2.4,9.3,2.4c4.5,0,7.8-0.7,10.1-2.2c2.3-1.5,3.4-3.5,3.4-6.1c0-1.5-0.5-2.7-1.6-3.6
		c-1.1-0.9-3-1.6-5.6-2.1L419.2,72c-0.5-0.1-0.9-0.2-1.3-0.3c-0.8,1.1-1.4,2.3-1.9,3.7S415.3,78.1,415.3,79.2z M427.4,56.8
		c2.2,0,3.8-0.9,4.7-2.7c1-1.8,1.5-4.8,1.5-8.9s-0.5-7-1.5-8.8c-1-1.7-2.5-2.6-4.5-2.6c-2,0-3.5,0.9-4.5,2.7c-1,1.7-1.6,4.7-1.6,8.8
		s0.5,7.1,1.4,8.8C423.9,56,425.4,56.8,427.4,56.8z"/>
	<path class="st1" d="M471.8,32.3c3.5,0,6.5,0.7,9,2.1s4.4,3.4,5.7,5.8s2,5.2,2,8.4c0,0.6,0,1.2-0.1,1.8s-0.2,1.2-0.3,1.6H464
		c0.1,5.8,1.1,10,3.1,12.6c2,2.6,5,3.8,9,3.8c2.7,0,4.9-0.5,6.6-1.3c1.6-0.9,3.2-2.1,4.7-3.8l0.8,0.7c-1.6,3-3.9,5.2-6.7,7
		c-2.7,1.7-6.1,2.5-10,2.5c-3.8,0-7.2-0.9-10.2-2.5c-3-1.6-5.2-4-7-7c-1.6-3.1-2.5-6.7-2.5-11c0-4.4,0.9-8.1,2.9-11.3s4.5-5.5,7.5-7
		C465.2,33.2,468.4,32.3,471.8,32.3z M471.6,34c-1.6,0-2.9,0.5-4,1.4c-1.1,0.9-2,2.6-2.6,5c-0.6,2.4-0.9,5.8-1,10.2h13.9
		c0.5-5.9,0.3-10.1-0.6-12.7C476.1,35.3,474.3,34,471.6,34z"/>
</g>
</svg>
