<?xml version="1.0" encoding="utf-8"?>
<!-- Generator: Adobe Illustrator 23.0.3, SVG Export Plug-In . SVG Version: 6.00 Build 0)  -->
<svg version="1.1" id="Livello_1" xmlns="http://www.w3.org/2000/svg" xmlns:xlink="http://www.w3.org/1999/xlink" x="0px" y="0px"
	 viewBox="0 0 493.5 92" style="enable-background:new 0 0 493.5 92;" xml:space="preserve">
<style type="text/css">
	.st0{fill:#47F594;stroke:#47F594;stroke-width:3;stroke-miterlimit:10;}
	.st1{enable-background:new    ;}
	.st2{fill:#47F594;}
</style>
<title>Risorsa 2</title>
<path class="st0" d="M54.6,5.6l-30.4,4.9L1.5,32.4c-0.2,1.2,0.5,2.4,1.8,2.7c0,0,0.1,0,0.1,0l5.3-0.4v31.8l29.8,9.3l30.9-10.7V38.3
	l5.6-1.1L54.6,5.6z M54.3,6.4l19.5,30.2l-5.2,1v26.9L38.5,74.9L9.4,65.8V33.7l-6,0.5c-0.7-0.1-1.2-0.8-1.1-1.5l22.2-21.6L54.3,6.4z
	 M26.7,48.5v20.8l10.7,3.4l0.1-31.3l2.4,4.5l17.2-4l-0.7-2.5L41,42.7L24.9,14.1L11,27.3l-0.4,36.9l7.4,2.4l0.1-21.2L26.7,48.5z
	 M42.3,12.1L34.8,13v11.9l5,8.9V16.5l7-1.2L42.3,12.1z"/>
<g class="st1">
	<path class="st2" d="M95.1,69.7v-0.8l1.5-0.5c1.1-0.4,1.9-0.9,2.3-1.6c0.4-0.7,0.6-1.6,0.6-2.7c0.1-3.4,0.1-6.7,0.1-10.2
		c0-3.4,0-6.8,0-10.2v-3.4c0-3.4,0-6.7,0-10.1c0-3.4,0-6.8-0.1-10.1c0-1.1-0.2-2-0.5-2.7c-0.3-0.7-1-1.2-2.1-1.6l-1.8-0.7v-0.8h40.7
		l0.6,13.9h-0.8l-4.8-8.8c-0.6-1.1-1.2-1.9-1.9-2.5c-0.7-0.6-1.7-0.9-3-0.9h-13.5c-0.1,4-0.1,8-0.1,12.2c0,4.1,0,8.3,0,12.3h8.7
		c1.3,0,2.2-0.3,2.9-0.8c0.6-0.6,1.2-1.4,1.8-2.4l1.8-3.2h0.8v14.7h-0.8l-1.8-3.2c-0.6-1-1.1-1.8-1.7-2.4c-0.6-0.6-1.5-0.9-2.8-0.9
		h-8.7c0,3.9,0,7.7,0,11.2c0,3.6,0,7,0.1,10.5c0,2.2,1.1,3.6,3.2,4.3l2.5,0.8v0.8H95.1z"/>
</g>
<g class="st1">
	<path class="st2" d="M137.6,69.7v-0.8l1.3-0.3c1.1-0.3,1.9-0.8,2.3-1.5c0.4-0.7,0.6-1.5,0.6-2.6V38.1c0-1.2-0.2-2.1-0.6-2.7
		c-0.4-0.6-1.2-1-2.3-1.2l-1.3-0.3V33l14.4-4.9l0.8,0.8l0.8,7.2v0.7c0.8-1.6,1.8-3,3.1-4.3c1.3-1.3,2.7-2.4,4.2-3.2
		c1.5-0.8,3.1-1.3,4.6-1.3c2.1,0,3.8,0.6,4.9,1.8c1.1,1.2,1.7,2.7,1.7,4.5c0,1.9-0.5,3.4-1.6,4.4c-1.1,1-2.4,1.6-3.9,1.6
		c-2.4,0-4.4-1.2-6.2-3.5l-0.2-0.2c-0.6-0.8-1.2-1.2-1.9-1.3c-0.7-0.1-1.4,0.3-2,1.1c-0.6,0.5-1,1.1-1.4,1.8c-0.4,0.7-0.7,1.5-1,2.4
		v23.4c0,2.2,1,3.6,2.9,4.2l2.7,0.8v0.8H137.6z"/>
</g>
<g class="st1">
	<path class="st2" d="M185.1,71c-3.2,0-6-0.9-8.2-2.8c-2.2-1.8-3.3-4.5-3.3-8c0-2.6,1.3-5.1,4-7.3c2.7-2.2,6.9-3.9,12.7-5
		c0.9-0.2,1.9-0.3,3-0.5c1.1-0.2,2.3-0.4,3.5-0.6v-6.6c0-3.8-0.5-6.5-1.4-8c-0.9-1.5-2.4-2.3-4.3-2.3c-1.3,0-2.4,0.4-3.2,1.3
		c-0.8,0.9-1.3,2.4-1.5,4.5l-0.2,0.9c-0.1,2.4-0.7,4.2-1.8,5.3c-1.1,1.1-2.4,1.7-3.9,1.7c-1.5,0-2.7-0.4-3.6-1.3
		c-1-0.9-1.4-2.1-1.4-3.6c0-2.3,0.8-4.2,2.4-5.8c1.6-1.6,3.7-2.7,6.3-3.5c2.6-0.8,5.5-1.2,8.6-1.2c5,0,8.8,1.2,11.6,3.7
		c2.7,2.4,4.1,6.4,4.1,11.9v18.6c0,2.5,1.2,3.8,3.5,3.8h1.8l0.8,0.7c-1.1,1.3-2.2,2.4-3.5,3.1c-1.3,0.7-3,1.1-5.3,1.1
		c-2.5,0-4.4-0.6-5.8-1.7s-2.4-2.7-2.8-4.6c-1.7,1.8-3.4,3.3-5.2,4.6S187.9,71,185.1,71z M190.2,65.9c1.1,0,2.2-0.3,3.1-0.8
		c1-0.5,2.1-1.4,3.5-2.5V48.5c-0.6,0.1-1.1,0.2-1.7,0.3c-0.6,0.1-1.2,0.2-1.9,0.3c-2.6,0.7-4.6,1.8-6.2,3.4
		c-1.5,1.6-2.3,3.7-2.3,6.4c0,2.3,0.5,4,1.6,5.2C187.4,65.3,188.7,65.9,190.2,65.9z"/>
</g>
<g class="st1">
	<path class="st2" d="M216.2,69.7v-0.8l1.2-0.3c2-0.6,2.9-1.9,2.9-4.1V38.1c0-1.2-0.2-2.1-0.6-2.7c-0.4-0.6-1.1-1-2.3-1.2l-1.3-0.3
		V33l14.4-4.9l0.8,0.8l0.7,5c2-1.7,4.2-3.2,6.6-4.3c2.5-1.1,4.9-1.7,7.3-1.7c3.7,0,6.5,1,8.5,3c2,2,3,5.1,3,9.2v24.2
		c0,2.2,1.1,3.6,3.2,4.1l0.8,0.3v0.8h-19.8v-0.8l1.1-0.3c2-0.6,2.9-2,2.9-4.1V37.6c0-3.6-1.8-5.4-5.4-5.4c-2.5,0-5.2,1.2-8.1,3.7
		v28.6c0,2.2,1,3.6,2.9,4.1l0.8,0.3v0.8H216.2z"/>
</g>
<g class="st1">
	<path class="st2" d="M285.6,71c-3.8,0-7.3-0.8-10.4-2.5c-3.1-1.7-5.6-4.1-7.4-7.2c-1.8-3.2-2.7-7-2.7-11.6c0-4.5,1-8.4,3-11.6
		c2-3.2,4.6-5.7,8-7.4c3.3-1.7,7-2.6,11-2.6c3.2,0,6,0.5,8.2,1.6c2.2,1.1,3.9,2.5,5.1,4.2c1.2,1.7,1.8,3.5,1.8,5.3
		c0,1.6-0.5,2.8-1.4,3.7c-1,0.9-2.2,1.3-3.7,1.3c-1.6,0-2.9-0.6-3.9-1.8s-1.6-2.7-1.8-4.6c-0.1-1.2,0-2.3,0.1-3.2
		c0.1-0.9,0.1-1.7,0-2.6c-0.2-1-0.6-1.6-1.1-1.9c-0.5-0.3-1.1-0.5-2-0.5c-3.4,0-6.1,1.5-7.9,4.5c-1.9,3-2.8,7.7-2.8,14.2
		c0,5.7,1,10,3.2,13c2.1,3,5.3,4.5,9.7,4.5c2.6,0,4.8-0.5,6.4-1.4c1.6-1,3.2-2.4,4.7-4.3l0.8,0.7c-1.4,3.3-3.6,5.9-6.5,7.6
		C293,70.1,289.5,71,285.6,71z"/>
</g>
<g class="st1">
	<path class="st2" d="M326.8,28.1c3.6,0,6.7,0.7,9.3,2.2c2.6,1.5,4.5,3.5,5.9,6c1.4,2.5,2.1,5.4,2.1,8.7c0,0.6,0,1.2-0.1,1.9
		c-0.1,0.6-0.2,1.2-0.3,1.7h-25c0.1,6,1.1,10.4,3.2,13.1c2.1,2.7,5.2,4,9.4,4c2.8,0,5.1-0.4,6.8-1.3c1.7-0.9,3.4-2.2,4.9-3.9
		l0.8,0.8c-1.7,3.1-4,5.5-6.9,7.2c-2.9,1.7-6.3,2.6-10.4,2.6c-4,0-7.5-0.9-10.6-2.6c-3.1-1.7-5.5-4.2-7.2-7.4
		c-1.7-3.2-2.6-7-2.6-11.4c0-4.6,1-8.5,3-11.7c2-3.2,4.6-5.7,7.8-7.3C320,28.9,323.3,28.1,326.8,28.1z M326.6,29.7
		c-1.6,0-3,0.5-4.2,1.5c-1.1,1-2,2.7-2.7,5.2c-0.6,2.5-1,6-1,10.5H333c0.6-6.1,0.3-10.5-0.7-13.2C331.3,31.1,329.4,29.7,326.6,29.7z
		"/>
	<path class="st2" d="M362.8,71c-2.7,0-5.2-0.3-7.4-1c-2.2-0.6-4.2-1.4-6-2.4l0.1-10h0.8l2.9,5c1.2,2.2,2.6,3.9,4.1,5
		c1.5,1.1,3.4,1.6,5.7,1.6c2.7,0,4.9-0.6,6.5-1.8c1.7-1.2,2.5-2.8,2.5-4.8c0-1.8-0.6-3.4-1.8-4.5s-3.4-2.2-6.6-3.2l-3.5-1.1
		c-3.4-1-6.1-2.6-8.1-4.7c-2-2.1-2.9-4.7-2.9-7.8c0-3.7,1.5-6.8,4.4-9.4c2.9-2.6,7.1-3.9,12.5-3.9c2.2,0,4.2,0.2,6.2,0.7
		c1.9,0.5,3.8,1.2,5.6,2.1l-0.5,9.1h-0.8l-2.9-5.2c-1.1-1.8-2.1-3.1-3.2-3.9c-1-0.8-2.6-1.1-4.7-1.1c-1.9,0-3.7,0.5-5.4,1.6
		c-1.7,1.1-2.5,2.6-2.5,4.5c0,1.9,0.7,3.4,2.1,4.5c1.4,1.1,3.5,2.2,6.3,3.1l3.8,1.1c4,1.2,6.9,2.9,8.7,5.1c1.7,2.2,2.6,4.7,2.6,7.8
		c0,4.1-1.6,7.4-4.8,9.8C373.2,69.7,368.7,71,362.8,71z"/>
</g>
<g class="st1">
	<path class="st2" d="M405.8,71c-3.8,0-7.3-0.8-10.4-2.5c-3.1-1.7-5.6-4.1-7.4-7.2c-1.8-3.2-2.7-7-2.7-11.6c0-4.5,1-8.4,3-11.6
		c2-3.2,4.6-5.7,8-7.4c3.3-1.7,7-2.6,11-2.6c3.2,0,6,0.5,8.2,1.6c2.2,1.1,3.9,2.5,5.1,4.2c1.2,1.7,1.8,3.5,1.8,5.3
		c0,1.6-0.5,2.8-1.4,3.7c-1,0.9-2.2,1.3-3.7,1.3c-1.6,0-2.9-0.6-3.9-1.8s-1.6-2.7-1.8-4.6c-0.1-1.2,0-2.3,0.1-3.2
		c0.1-0.9,0.1-1.7,0-2.6c-0.2-1-0.6-1.6-1.1-1.9c-0.5-0.3-1.1-0.5-2-0.5c-3.4,0-6.1,1.5-7.9,4.5c-1.9,3-2.8,7.7-2.8,14.2
		c0,5.7,1,10,3.1,13c2.1,3,5.3,4.5,9.7,4.5c2.6,0,4.8-0.5,6.4-1.4c1.6-1,3.2-2.4,4.7-4.3l0.8,0.7c-1.4,3.3-3.6,5.9-6.5,7.6
		C413.2,70.1,409.7,71,405.8,71z"/>
</g>
<g class="st1">
	<path class="st2" d="M447.2,71c-4.3,0-8-0.9-11.1-2.6c-3.1-1.8-5.6-4.3-7.3-7.5c-1.7-3.2-2.6-7.1-2.6-11.4s0.9-8.1,2.7-11.3
		c1.8-3.2,4.3-5.7,7.5-7.4c3.2-1.7,6.7-2.6,10.7-2.6s7.5,0.9,10.7,2.6c3.1,1.7,5.6,4.2,7.4,7.3c1.8,3.2,2.7,7,2.7,11.4
		c0,4.4-0.9,8.2-2.6,11.5c-1.7,3.2-4.1,5.7-7.2,7.5C455.1,70.1,451.4,71,447.2,71z M447.2,69.3c2,0,3.5-0.6,4.7-1.7
		c1.2-1.1,2-3.1,2.6-6c0.5-2.9,0.8-6.9,0.8-12.1c0-5.3-0.3-9.3-0.8-12.2c-0.5-2.9-1.4-4.8-2.6-6c-1.2-1.1-2.7-1.7-4.7-1.7
		c-2,0-3.5,0.6-4.7,1.7c-1.2,1.1-2.1,3.1-2.6,6c-0.5,2.9-0.8,6.9-0.8,12.2c0,5.2,0.3,9.2,0.8,12.1c0.5,2.9,1.4,4.8,2.6,6
		C443.6,68.7,445.2,69.3,447.2,69.3z"/>
</g>
<g class="st1">
	<path class="st2" d="M481,71c-2,0-3.7-0.7-5.1-2.1c-1.4-1.4-2.1-3.1-2.1-5c0-2,0.7-3.7,2.1-5.1c1.4-1.5,3.1-2.2,5.1-2.2
		c2,0,3.7,0.7,5.1,2.2c1.4,1.5,2.1,3.2,2.1,5.1c0,2-0.7,3.6-2.1,5C484.7,70.3,483,71,481,71z"/>
</g>
</svg>
