<svg xmlns="http://www.w3.org/2000/svg" viewBox="0 0 800 1422"><g xmlns="http://www.w3.org/2000/svg" transform="matrix(0 1 -1 0 800 -0)"><g stroke-width="1" stroke="hsl(122, 100%, 51%)" fill="none" stroke-linecap="round"><path d="M 0 7519 Q 355.5 -100 711 400 Q 1066.5 900 1422 7519"></path><path d="M 0 7416 Q 355.5 -100 711 400 Q 1066.5 900 1422 7416"></path><path d="M 0 7313 Q 355.5 -100 711 400 Q 1066.5 900 1422 7313"></path><path d="M 0 7210 Q 355.5 -100 711 400 Q 1066.5 900 1422 7210"></path><path d="M 0 7107 Q 355.5 -100 711 400 Q 1066.5 900 1422 7107"></path><path d="M 0 7004 Q 355.5 -100 711 400 Q 1066.5 900 1422 7004"></path><path d="M 0 6901 Q 355.5 -100 711 400 Q 1066.5 900 1422 6901"></path><path d="M 0 6798 Q 355.5 -100 711 400 Q 1066.5 900 1422 6798"></path><path d="M 0 6695 Q 355.5 -100 711 400 Q 1066.5 900 1422 6695"></path><path d="M 0 6592 Q 355.5 -100 711 400 Q 1066.5 900 1422 6592"></path><path d="M 0 6489 Q 355.5 -100 711 400 Q 1066.5 900 1422 6489"></path><path d="M 0 6386 Q 355.5 -100 711 400 Q 1066.5 900 1422 6386"></path><path d="M 0 6283 Q 355.5 -100 711 400 Q 1066.5 900 1422 6283"></path><path d="M 0 6180 Q 355.5 -100 711 400 Q 1066.5 900 1422 6180"></path><path d="M 0 6077 Q 355.5 -100 711 400 Q 1066.5 900 1422 6077"></path><path d="M 0 5974 Q 355.5 -100 711 400 Q 1066.5 900 1422 5974"></path><path d="M 0 5871 Q 355.5 -100 711 400 Q 1066.5 900 1422 5871"></path><path d="M 0 5768 Q 355.5 -100 711 400 Q 1066.5 900 1422 5768"></path><path d="M 0 5665 Q 355.5 -100 711 400 Q 1066.5 900 1422 5665"></path><path d="M 0 5562 Q 355.5 -100 711 400 Q 1066.5 900 1422 5562"></path><path d="M 0 5459 Q 355.5 -100 711 400 Q 1066.5 900 1422 5459"></path><path d="M 0 5356 Q 355.5 -100 711 400 Q 1066.5 900 1422 5356"></path><path d="M 0 5253 Q 355.5 -100 711 400 Q 1066.5 900 1422 5253"></path><path d="M 0 5150 Q 355.5 -100 711 400 Q 1066.5 900 1422 5150"></path><path d="M 0 5047 Q 355.5 -100 711 400 Q 1066.5 900 1422 5047"></path><path d="M 0 4944 Q 355.5 -100 711 400 Q 1066.5 900 1422 4944"></path><path d="M 0 4841 Q 355.5 -100 711 400 Q 1066.5 900 1422 4841"></path><path d="M 0 4738 Q 355.5 -100 711 400 Q 1066.5 900 1422 4738"></path><path d="M 0 4635 Q 355.5 -100 711 400 Q 1066.5 900 1422 4635"></path><path d="M 0 4532 Q 355.5 -100 711 400 Q 1066.5 900 1422 4532"></path><path d="M 0 4429 Q 355.5 -100 711 400 Q 1066.5 900 1422 4429"></path><path d="M 0 4326 Q 355.5 -100 711 400 Q 1066.5 900 1422 4326"></path><path d="M 0 4223 Q 355.5 -100 711 400 Q 1066.5 900 1422 4223"></path><path d="M 0 4120 Q 355.5 -100 711 400 Q 1066.5 900 1422 4120"></path><path d="M 0 4017 Q 355.5 -100 711 400 Q 1066.5 900 1422 4017"></path><path d="M 0 3914 Q 355.5 -100 711 400 Q 1066.5 900 1422 3914"></path><path d="M 0 3811 Q 355.5 -100 711 400 Q 1066.5 900 1422 3811"></path><path d="M 0 3708 Q 355.5 -100 711 400 Q 1066.5 900 1422 3708"></path><path d="M 0 3605 Q 355.5 -100 711 400 Q 1066.5 900 1422 3605"></path><path d="M 0 3502 Q 355.5 -100 711 400 Q 1066.5 900 1422 3502"></path><path d="M 0 3399 Q 355.5 -100 711 400 Q 1066.5 900 1422 3399"></path><path d="M 0 3296 Q 355.5 -100 711 400 Q 1066.5 900 1422 3296"></path><path d="M 0 3193 Q 355.5 -100 711 400 Q 1066.5 900 1422 3193"></path><path d="M 0 3090 Q 355.5 -100 711 400 Q 1066.5 900 1422 3090"></path><path d="M 0 2987 Q 355.5 -100 711 400 Q 1066.5 900 1422 2987"></path><path d="M 0 2884 Q 355.5 -100 711 400 Q 1066.5 900 1422 2884"></path><path d="M 0 2781 Q 355.5 -100 711 400 Q 1066.5 900 1422 2781"></path><path d="M 0 2678 Q 355.5 -100 711 400 Q 1066.5 900 1422 2678"></path><path d="M 0 2575 Q 355.5 -100 711 400 Q 1066.5 900 1422 2575"></path><path d="M 0 2472 Q 355.5 -100 711 400 Q 1066.5 900 1422 2472"></path><path d="M 0 2369 Q 355.5 -100 711 400 Q 1066.5 900 1422 2369"></path><path d="M 0 2266 Q 355.5 -100 711 400 Q 1066.5 900 1422 2266"></path><path d="M 0 2163 Q 355.5 -100 711 400 Q 1066.5 900 1422 2163"></path><path d="M 0 2060 Q 355.5 -100 711 400 Q 1066.5 900 1422 2060"></path><path d="M 0 1957 Q 355.5 -100 711 400 Q 1066.5 900 1422 1957"></path><path d="M 0 1854 Q 355.5 -100 711 400 Q 1066.5 900 1422 1854"></path><path d="M 0 1751 Q 355.5 -100 711 400 Q 1066.5 900 1422 1751"></path><path d="M 0 1648 Q 355.5 -100 711 400 Q 1066.5 900 1422 1648"></path><path d="M 0 1545 Q 355.5 -100 711 400 Q 1066.5 900 1422 1545"></path><path d="M 0 1442 Q 355.5 -100 711 400 Q 1066.5 900 1422 1442"></path><path d="M 0 1339 Q 355.5 -100 711 400 Q 1066.5 900 1422 1339"></path><path d="M 0 1236 Q 355.5 -100 711 400 Q 1066.5 900 1422 1236"></path><path d="M 0 1133 Q 355.5 -100 711 400 Q 1066.5 900 1422 1133"></path><path d="M 0 1030 Q 355.5 -100 711 400 Q 1066.5 900 1422 1030"></path><path d="M 0 927 Q 355.5 -100 711 400 Q 1066.5 900 1422 927"></path><path d="M 0 824 Q 355.5 -100 711 400 Q 1066.5 900 1422 824"></path><path d="M 0 721 Q 355.5 -100 711 400 Q 1066.5 900 1422 721"></path><path d="M 0 618 Q 355.5 -100 711 400 Q 1066.5 900 1422 618"></path><path d="M 0 515 Q 355.5 -100 711 400 Q 1066.5 900 1422 515"></path><path d="M 0 412 Q 355.5 -100 711 400 Q 1066.5 900 1422 412"></path><path d="M 0 309 Q 355.5 -100 711 400 Q 1066.5 900 1422 309"></path><path d="M 0 206 Q 355.5 -100 711 400 Q 1066.5 900 1422 206"></path></g></g></svg>